<?xml version="1.0" encoding="UTF-8" standalone="no"?>
<!-- Generator: Adobe Illustrator 16.0.0, SVG Export Plug-In . SVG Version: 6.00 Build 0)  -->

<svg
   version="1.1"
   id="Capa_1"
   x="0px"
   y="0px"
   width="191.721px"
   height="191.72px"
   viewBox="0 0 191.721 191.72"
   style="enable-background:new 0 0 191.721 191.72;"
   xml:space="preserve"
   sodipodi:docname="delete-cross.svg"
   inkscape:version="1.1 (c68e22c387, 2021-05-23)"
   inkscape:export-filename=".\delete-cross.png"
   inkscape:export-xdpi="12.017464"
   inkscape:export-ydpi="12.017464"
   xmlns:inkscape="http://www.inkscape.org/namespaces/inkscape"
   xmlns:sodipodi="http://sodipodi.sourceforge.net/DTD/sodipodi-0.dtd"
   xmlns="http://www.w3.org/2000/svg"
   xmlns:svg="http://www.w3.org/2000/svg"><defs
   id="defs39" /><sodipodi:namedview
   id="namedview37"
   pagecolor="#505050"
   bordercolor="#eeeeee"
   borderopacity="1"
   inkscape:pageshadow="0"
   inkscape:pageopacity="0"
   inkscape:pagecheckerboard="0"
   showgrid="false"
   inkscape:zoom="4.5535155"
   inkscape:cx="95.860001"
   inkscape:cy="95.750195"
   inkscape:window-width="2560"
   inkscape:window-height="1400"
   inkscape:window-x="-12"
   inkscape:window-y="-12"
   inkscape:window-maximized="1"
   inkscape:current-layer="layer2"
   inkscape:snap-page="true" />

<g
   id="g6">
</g>
<g
   id="g8">
</g>
<g
   id="g10">
</g>
<g
   id="g12">
</g>
<g
   id="g14">
</g>
<g
   id="g16">
</g>
<g
   id="g18">
</g>
<g
   id="g20">
</g>
<g
   id="g22">
</g>
<g
   id="g24">
</g>
<g
   id="g26">
</g>
<g
   id="g28">
</g>
<g
   id="g30">
</g>
<g
   id="g32">
</g>
<g
   id="g34">
</g>
<g
   inkscape:groupmode="layer"
   id="layer2"
   inkscape:label="Layer 2"><rect
     style="fill:#ee0000;stroke-width:0.963594;fill-opacity:1"
     id="rect1126"
     width="191.72099"
     height="191.72"
     x="6.2172489e-15"
     y="7.9936058e-15" /></g><g
   inkscape:groupmode="layer"
   id="layer1"
   inkscape:label="Layer 1"
   sodipodi:insensitive="true"><g
     id="g4"
     style="fill:#ff0000"
     transform="translate(6.5824223e-4,-0.11166028)"><path
       d="m 191.328,133.248 c -6.39,-12.188 -19.232,-21.508 -29.474,-30.397 -10.948,-9.502 -22.332,-18.497 -33.687,-27.513 12.985,-16.615 26.197,-33.1 39.136,-49.818 2.477,-0.111 4.292,-2.813 3.856,-5.3 1.225,-3.119 -2.752,-6.463 -5.736,-5.2 C 159.679,11.619 153.362,8.685 147.446,5.925 145.057,4.81 142.309,7.2 143.137,9.377 128.926,23.898 114.207,37.941 99.34,51.844 93.132,46.572 87.008,41.2 81.04,35.656 81.012,35.63 80.986,35.6 80.958,35.574 80.945,34.572 80.511,33.561 79.489,32.715 79.194,32.471 78.874,32.263 78.573,32.028 l 0.01,-0.013 C 78.545,31.995 78.508,31.971 78.47,31.95 77.333,31.066 76.187,30.195 75.017,29.36 69.392,22.967 63.99,15.796 57.621,10.643 57.514,7.526 54.256,4.475 50.786,6.58 39.092,13.676 24.802,21.002 15.783,31.517 c -0.285,0.332 -0.502,0.674 -0.675,1.023 -2.405,0 -4.331,3.555 -2.289,5.636 16.229,16.54 34.895,30.518 53.126,44.752 -20.276,18.875 -40.302,37.979 -59.288,58.052 -0.08,0.071 -0.165,0.098 -0.243,0.18 -1.737,1.782 -3.445,3.593 -5.122,5.431 -2.882,3.107 -0.485,7.23 2.663,7.824 5.768,9.427 14.606,16.436 23.635,22.602 6.122,4.182 17.289,11.836 24.996,8.038 1.435,0.256 2.953,-0.159 3.71,-1.67 12.661,-25.268 27.836,-48.728 44.177,-71.383 9.179,8.064 18.289,16.209 27.48,24.216 2.699,2.351 32.588,33.965 37.721,23.447 0.705,0.192 1.441,0.281 2.169,0.147 4.673,-0.851 8.372,-6.737 10.926,-10.222 2.64,-3.602 5.362,-7.41 7.675,-11.325 3.14,2.122 6.425,-2.077 4.884,-5.017 z m -169.676,6.587 c -0.232,0.629 -0.283,1.287 -0.24,1.938 -1.146,0.634 -1.929,1.723 -2.232,2.958 -1.187,0.104 -2.329,0.498 -3.314,1.236 -0.14,-0.058 -0.277,-0.118 -0.417,-0.176 2.057,-1.991 4.122,-3.978 6.203,-5.956 z m 29.398,37.208 c -0.836,-0.394 -1.706,-0.678 -2.581,-0.959 1.438,-0.5 2.758,-1.215 3.959,-2.127 -0.451,1.031 -0.936,2.051 -1.378,3.086 z M 72.621,76.7 C 62.391,68.431 52.026,60.325 41.627,52.268 c 3.282,2.261 6.666,4.363 10.146,6.318 6.855,6.141 13.933,12.056 21.077,17.901 -0.078,0.072 -0.154,0.143 -0.229,0.213 z"
       id="path2"
       style="fill:#ff0000" /></g></g></svg>
