<?xml version="1.0" encoding="UTF-8" standalone="no"?>
<svg
   height="500"
   width="500"
   xml:space="preserve"
   version="1.1"
   id="svg8"
   sodipodi:docname="fileOpen.svg"
   inkscape:version="1.1 (c68e22c387, 2021-05-23)"
   inkscape:export-filename=".\fileOpen.png"
   inkscape:export-xdpi="3.072"
   inkscape:export-ydpi="3.072"
   xmlns:inkscape="http://www.inkscape.org/namespaces/inkscape"
   xmlns:sodipodi="http://sodipodi.sourceforge.net/DTD/sodipodi-0.dtd"
   xmlns:xlink="http://www.w3.org/1999/xlink"
   xmlns="http://www.w3.org/2000/svg"
   xmlns:svg="http://www.w3.org/2000/svg"><defs
     id="defs12" /><sodipodi:namedview
     id="namedview10"
     pagecolor="#505050"
     bordercolor="#eeeeee"
     borderopacity="1"
     inkscape:pageshadow="0"
     inkscape:pageopacity="0"
     inkscape:pagecheckerboard="0"
     showgrid="false"
     width="500px"
     inkscape:snap-bbox="true"
     inkscape:bbox-paths="true"
     inkscape:bbox-nodes="true"
     inkscape:snap-bbox-edge-midpoints="true"
     inkscape:snap-bbox-midpoints="true"
     inkscape:object-paths="true"
     inkscape:snap-intersection-paths="true"
     inkscape:snap-smooth-nodes="true"
     inkscape:snap-midpoints="true"
     inkscape:snap-object-midpoints="true"
     inkscape:snap-center="true"
     inkscape:snap-text-baseline="true"
     inkscape:snap-page="true"
     inkscape:zoom="1.4528907"
     inkscape:cx="112.53427"
     inkscape:cy="291.14372"
     inkscape:window-width="2560"
     inkscape:window-height="1400"
     inkscape:window-x="-12"
     inkscape:window-y="-12"
     inkscape:window-maximized="1"
     inkscape:current-layer="layer2"
     inkscape:snap-global="true"
     showguides="true"
     inkscape:guide-bbox="true"
     inkscape:snap-nodes="true"><sodipodi:guide
       position="250,250"
       orientation="-1,0"
       id="guide26"
       inkscape:label=""
       inkscape:locked="false"
       inkscape:color="rgb(0,0,255)" /></sodipodi:namedview><g
     inkscape:groupmode="layer"
     id="layer1"
     inkscape:label="bg bmp"
     style="display:none"><rect
       style="fill:#e4ac00"
       id="rect947"
       width="500"
       height="500"
       x="0"
       y="0" /></g><g
     inkscape:groupmode="layer"
     id="layer2"
     inkscape:label="bg hot"
     style="display:inline"><rect
       style="fill:#1abc9c;fill-opacity:1;stroke-width:0.982209"
       id="rect950"
       width="500"
       height="503.13489"
       x="0"
       y="0" /></g><g
     inkscape:groupmode="layer"
     id="layer6"
     inkscape:label="folder B"
     style="display:inline"
     sodipodi:insensitive="true"><path
       style="fill:#e8b826;fill-opacity:1;fill-rule:evenodd;stroke:none;stroke-width:0.13333"
       d="m 139.6431,124.04115 h 246.7365 c 13.63032,0 26.59533,6.06918 36.22576,16.85291 9.12244,10.21308 14.49697,23.82474 15.01029,38.26971 L 415.62953,444.12075 H 33.23789 L 4.35848,445.03739 V 181.45705 c 0,-1.47997 0.0583,-2.95993 0.16133,-4.43589 0.0417,-0.59465 0.0955,-1.18931 0.1564,-1.78396 -0.0595,-0.53865 -0.10933,-1.07864 -0.1516,-1.61996 A 56.044999,56.044999 0 0 1 4.35848,169.32135 V 110.86148 C 4.35848,97.56715 9.0781,84.916797 17.46749,75.522366 25.85634,66.129267 37.155,60.842733 49.02763,60.842733 h 45.94579 c 11.8721,0 23.17075,5.286534 31.55961,14.679633 8.38939,9.394431 13.11007,22.044784 13.11007,35.339114 v 13.17967"
       id="path2" /></g><g
     inkscape:groupmode="layer"
     id="layer7"
     inkscape:label="doc"
     style="display:inline"><rect
       style="fill:#4198b3;fill-opacity:1;stroke-width:0.847608"
       id="rect16702"
       width="326.082"
       height="315.6442"
       x="86.959"
       y="36.103848"
       rx="9.7337942"
       ry="9.7337942" /><rect
       style="fill:#f5f5f5;fill-opacity:1;stroke-width:0.666435"
       id="rect28144"
       width="204.05188"
       height="29.201374"
       x="146.67244"
       y="78.843712"
       rx="4.3231325"
       ry="9.7337904"
       inkscape:tile-cx="248.69838"
       inkscape:tile-cy="93.444399"
       inkscape:tile-w="204.05188"
       inkscape:tile-h="29.201374"
       inkscape:tile-x0="146.67244"
       inkscape:tile-y0="78.843712" /><use
       x="0"
       y="0"
       inkscape:tiled-clone-of="#rect28144"
       xlink:href="#rect28144"
       id="use31465"
       width="100%"
       height="100%" /><use
       x="0"
       y="0"
       inkscape:tiled-clone-of="#rect28144"
       xlink:href="#rect28144"
       transform="translate(0,58.402748)"
       id="use31467"
       width="100%"
       height="100%" /><use
       x="0"
       y="0"
       inkscape:tiled-clone-of="#rect28144"
       xlink:href="#rect28144"
       transform="translate(0,116.8055)"
       id="use31469"
       width="100%"
       height="100%" /><use
       x="0"
       y="0"
       inkscape:tiled-clone-of="#rect28144"
       xlink:href="#rect28144"
       transform="translate(0,175.20824)"
       id="use31471"
       width="100%"
       height="100%" /></g><g
     inkscape:groupmode="layer"
     id="layer8"
     inkscape:label="folder f"
     sodipodi:insensitive="true"
     style="display:inline"><path
       style="display:inline;fill:#ffca28;fill-opacity:1;fill-rule:evenodd;stroke:none;stroke-width:0.13333"
       d="m 454.34056,206.42842 c 3.96524,0 7.91981,0.49599 11.75304,1.52263 8.68379,2.32661 16.25826,7.29982 21.6488,14.50497 5.34786,7.14649 8.0118,15.75027 8.0118,24.65139 0,4.21322 -0.60132,8.40779 -1.69196,12.47568 l -48.88678,182.45544 c -3.27592,12.22356 -11.00239,23.10089 -20.89281,30.90016 -9.88242,7.79581 -22.27011,12.77475 -34.94846,12.77475 H 45.65998 c -3.9671,0 -7.92167,-0.49465 -11.7549,-1.52236 -8.68405,-2.32661 -16.2584,-7.29929 -21.6488,-14.50484 -5.34693,-7.14675 -8.0098,-15.74961 -8.0098,-24.64885 0,-4.21496 0.60052,-8.41019 1.6901,-12.47782 L 54.82589,250.10466 c 3.27551,-12.22502 11.00185,-23.10342 20.89067,-30.90189 9.88309,-7.79447 22.27078,-12.77435 34.94966,-12.77435 h 343.67434"
       id="path6" /></g></svg>
