<?xml version="1.0" encoding="UTF-8" standalone="no"?>
<svg
   height="500"
   width="500"
   xml:space="preserve"
   version="1.1"
   id="svg8"
   sodipodi:docname="folder.svg"
   inkscape:version="1.1 (c68e22c387, 2021-05-23)"
   inkscape:export-filename=".\folder.png"
   inkscape:export-xdpi="6.1440001"
   inkscape:export-ydpi="6.1440001"
   xmlns:inkscape="http://www.inkscape.org/namespaces/inkscape"
   xmlns:sodipodi="http://sodipodi.sourceforge.net/DTD/sodipodi-0.dtd"
   xmlns="http://www.w3.org/2000/svg"
   xmlns:svg="http://www.w3.org/2000/svg"><defs
     id="defs12" /><sodipodi:namedview
     id="namedview10"
     pagecolor="#9e9e9e"
     bordercolor="#eeeeee"
     borderopacity="1"
     inkscape:pageshadow="0"
     inkscape:pageopacity="1"
     inkscape:pagecheckerboard="true"
     showgrid="false"
     width="500px"
     inkscape:snap-bbox="true"
     inkscape:bbox-paths="true"
     inkscape:bbox-nodes="true"
     inkscape:snap-bbox-edge-midpoints="true"
     inkscape:snap-bbox-midpoints="true"
     inkscape:object-paths="true"
     inkscape:snap-intersection-paths="true"
     inkscape:snap-smooth-nodes="true"
     inkscape:snap-midpoints="true"
     inkscape:snap-object-midpoints="true"
     inkscape:snap-center="true"
     inkscape:snap-text-baseline="true"
     inkscape:snap-page="true"
     inkscape:zoom="1.0273489"
     inkscape:cx="201.00279"
     inkscape:cy="212.19665"
     inkscape:window-width="2560"
     inkscape:window-height="1400"
     inkscape:window-x="-12"
     inkscape:window-y="-12"
     inkscape:window-maximized="1"
     inkscape:current-layer="layer2"
     inkscape:snap-global="true"
     showguides="true"
     inkscape:guide-bbox="true"><sodipodi:guide
       position="250,250"
       orientation="-1,0"
       id="guide26"
       inkscape:label=""
       inkscape:locked="false"
       inkscape:color="rgb(0,0,255)" /></sodipodi:namedview><g
     inkscape:groupmode="layer"
     id="layer2"
     inkscape:label="Layer 2"
     style="display:inline"><rect
       style="fill:#e4ac00;fill-opacity:1"
       id="rect1312"
       width="500"
       height="500"
       x="0"
       y="0" /></g><g
     inkscape:groupmode="layer"
     id="layer1"
     inkscape:label="Layer 1"><g
       id="g17"
       transform="translate(4.246144,37.555356)"><path
         style="fill:#e8b826;fill-opacity:1;fill-rule:evenodd;stroke:none"
         d="m 1015.5,2712.61 h 1850.57 c 102.23,0 199.47,-45.52 271.7,-126.4 68.42,-76.6 108.73,-178.69 112.58,-287.03 L 3085.45,311.953 H 217.441 L 0.84,305.078 V 2281.98 c 0,11.1 0.437,22.2 1.21,33.27 0.313,4.46 0.716,8.92 1.173,13.38 -0.446,4.04 -0.82,8.09 -1.137,12.15 A 420.348,420.348 0 0 0 0.84,2373 v 438.46 c 0,99.71 35.398,194.59 98.32,265.05 62.918,70.45 147.66,110.1 236.707,110.1 h 344.602 c 89.043,0 173.785,-39.65 236.703,-110.1 62.922,-70.46 98.328,-165.34 98.328,-265.05 v -98.85"
         transform="matrix(0.13333,0,0,-0.13333,0,424.88)"
         id="path2" /><path
         style="fill:#f5f5f5;fill-opacity:1;fill-rule:evenodd;stroke:none"
         d="M 820.797,2331.89 H 2865.6 c 84.48,0 153.6,-69.11 153.6,-153.59 v -820.81 c 0,-84.48 -69.12,-153.59 -153.6,-153.59 H 820.797 c -84.484,0 -153.602,69.11 -153.602,153.59 v 820.81 c 0,84.48 69.118,153.59 153.602,153.59"
         transform="matrix(0.13333,0,0,-0.13333,0,424.88)"
         id="path4" /><path
         style="fill:#ffca28;fill-opacity:1;fill-rule:evenodd;stroke:none"
         d="m 3375.79,2094.69 c 29.74,0 59.4,-3.72 88.15,-11.42 65.13,-17.45 121.94,-54.75 162.37,-108.79 40.11,-53.6 60.09,-118.13 60.09,-184.89 0,-31.6 -4.51,-63.06 -12.69,-93.57 L 3307.05,327.57 C 3282.48,235.891 3224.53,154.309 3150.35,95.813 3076.23,37.343 2983.32,0 2888.23,0 H 310.609 C 280.855,0 251.195,3.71 222.445,11.418 157.313,28.868 100.504,66.164 60.075,120.207 19.972,173.809 0,238.332 0,305.078 c 0,31.613 4.504,63.078 12.676,93.586 L 379.355,1767.11 c 24.567,91.69 82.516,173.28 156.684,231.77 74.125,58.46 167.035,95.81 262.129,95.81 H 3375.79"
         transform="matrix(0.13333,0,0,-0.13333,0,424.88)"
         id="path6" /></g></g></svg>
