<?xml version="1.0" encoding="UTF-8" standalone="no"?>
<!-- Generator: Adobe Illustrator 19.0.0, SVG Export Plug-In . SVG Version: 6.00 Build 0)  -->

<svg
   version="1.1"
   id="Capa_1"
   x="0px"
   y="0px"
   viewBox="0 0 512 512"
   style="enable-background:new 0 0 512 512;"
   xml:space="preserve"
   sodipodi:docname="search.svg"
   inkscape:version="1.1 (c68e22c387, 2021-05-23)"
   inkscape:export-filename=".\search.png"
   inkscape:export-xdpi="4.5"
   inkscape:export-ydpi="4.5"
   xmlns:inkscape="http://www.inkscape.org/namespaces/inkscape"
   xmlns:sodipodi="http://sodipodi.sourceforge.net/DTD/sodipodi-0.dtd"
   xmlns="http://www.w3.org/2000/svg"
   xmlns:svg="http://www.w3.org/2000/svg"><defs
   id="defs57" /><sodipodi:namedview
   id="namedview55"
   pagecolor="#505050"
   bordercolor="#eeeeee"
   borderopacity="1"
   inkscape:pageshadow="0"
   inkscape:pageopacity="0"
   inkscape:pagecheckerboard="0"
   showgrid="false"
   inkscape:snap-page="true"
   inkscape:zoom="1.7050781"
   inkscape:cx="256"
   inkscape:cy="255.70676"
   inkscape:window-width="2560"
   inkscape:window-height="1400"
   inkscape:window-x="-12"
   inkscape:window-y="-12"
   inkscape:window-maximized="1"
   inkscape:current-layer="layer2" />


























<g
   inkscape:groupmode="layer"
   id="layer2"
   inkscape:label="Layer 2"><rect
     style="fill:#538ab3;fill-opacity:1;stroke-width:0.998888"
     id="rect1186"
     width="512"
     height="512"
     x="0"
     y="0" /></g><g
   inkscape:groupmode="layer"
   id="layer1"
   inkscape:label="Layer 1"><g
     id="g900"
     transform="translate(0,-0.2932417)"><path
       style="fill:#b06328"
       d="m 512,471.273 v 0 C 512,493.382 493.382,512 471.273,512 v 0 c -11.636,0 -22.109,-4.655 -30.255,-12.8 L 310.691,357.236 c -4.655,-4.655 -4.655,-11.636 0,-16.291 l 30.255,-30.255 c 4.655,-4.655 11.636,-4.655 16.291,0 L 499.2,442.182 c 8.145,6.982 12.8,18.618 12.8,29.091 z"
       id="path2" /><rect
       x="292.065"
       y="283.92801"
       transform="matrix(-0.7071,0.7071,-0.7071,-0.7071,744.4417,308.3694)"
       style="fill:#b0c4d8"
       width="32.581001"
       height="48.872002"
       id="rect4" /><path
       style="fill:#99b4cd"
       d="m 320,320 5.818,5.818 11.636,-11.636 -34.909,-34.909 -23.273,23.273 17.455,17.454 v 0 c 6.982,-6.982 16.291,-6.982 23.273,0 z"
       id="path6" /><path
       style="fill:#c4d7e5"
       d="M 174.545,0 C 77.964,0 0,77.964 0,174.545 0,271.126 77.964,349.09 174.545,349.09 271.126,349.09 349.09,271.126 349.09,174.545 349.09,77.964 271.127,0 174.545,0 Z m 0,314.182 c -76.8,0 -139.636,-62.836 -139.636,-139.636 0,-76.8 62.836,-139.637 139.636,-139.637 76.8,0 139.636,62.836 139.636,139.636 0,76.8 -62.836,139.637 -139.636,139.637 z"
       id="path8" /><circle
       style="fill:#70b7e5"
       cx="174.545"
       cy="174.545"
       r="139.636"
       id="circle10" /><path
       style="fill:#92c5eb"
       d="m 105.891,190.836 c 5.818,-44.218 40.727,-79.127 84.945,-84.945 H 192 c 19.782,-2.327 20.945,-30.255 2.327,-33.745 -11.636,-2.327 -23.273,-2.327 -34.909,-1.164 -45.382,6.982 -81.455,43.055 -87.273,87.273 -2.327,11.636 -1.164,24.436 1.164,34.909 3.491,19.782 31.418,17.455 33.745,-2.327 -1.163,1.163 -1.163,-10e-4 -1.163,-10e-4 z"
       id="path12" /><path
       style="fill:#4c9cd6"
       d="m 46.545,186.182 c 0,-76.8 62.836,-139.636 139.636,-139.636 36.073,0 67.491,13.964 93.091,34.909 -25.6,-29.091 -62.836,-46.545 -104.727,-46.545 -76.8,0 -139.636,62.836 -139.636,139.636 0,41.891 18.618,79.127 46.545,104.727 -20.945,-25.6 -34.909,-57.018 -34.909,-93.091 z"
       id="path14" /><path
       style="fill:#b0c9db"
       d="m 174.545,349.091 v 0 c 96.582,0 174.545,-77.964 174.545,-174.545 v 0 c -5.818,0 -11.636,4.655 -11.636,11.636 -2.327,39.564 -19.782,75.636 -46.545,102.4 -26.764,27.927 -64,45.382 -104.727,48.873 -6.982,0 -11.637,5.818 -11.637,11.636 z"
       id="path16" /><path
       style="fill:#e2e7f0"
       d="M 174.545,0 V 0 C 77.964,0 0,77.964 0,174.545 v 0 c 5.818,0 11.636,-4.655 11.636,-11.636 C 13.964,124.509 30.255,89.6 54.691,64 82.618,34.909 121.018,15.127 162.909,11.636 c 6.982,0 11.636,-5.818 11.636,-11.636 z"
       id="path18" /><path
       style="fill:#a35425"
       d="m 498.036,441.018 -6.982,-5.818 c 5.818,6.982 9.309,16.291 9.309,25.6 v 0 c 0,15.127 -18.618,20.945 -29.091,10.473 L 349.091,349.091 c -6.982,-6.982 -17.455,-6.982 -24.436,0 l -11.636,11.636 126.836,136.145 c 6.982,6.982 16.291,12.8 25.6,13.964 12.8,1.164 25.6,-3.491 33.745,-11.636 8.145,-8.145 12.8,-20.945 11.636,-33.745 0,-9.31 -5.818,-17.455 -12.8,-24.437 z"
       id="path20" /><path
       style="fill:#c97629"
       d="m 378.182,360.727 c -1.164,0 -3.491,0 -4.655,-1.164 l -29.091,-29.091 c -2.327,-2.327 -2.327,-5.818 0,-8.145 2.327,-2.327 5.818,-2.327 8.145,0 l 29.091,29.091 c 2.327,2.327 2.327,5.818 0,8.145 10e-4,1.164 -2.327,1.164 -3.49,1.164 z"
       id="path22" /><g
       id="g24" /><g
       id="g26" /><g
       id="g28" /><g
       id="g30" /><g
       id="g32" /><g
       id="g34" /><g
       id="g36" /><g
       id="g38" /><g
       id="g40" /><g
       id="g42" /><g
       id="g44" /><g
       id="g46" /><g
       id="g48" /><g
       id="g50" /><g
       id="g52" /></g></g></svg>
