<?xml version="1.0" encoding="UTF-8" standalone="no"?>
<!-- Created with Inkscape (http://www.inkscape.org/) -->

<svg
   width="200mm"
   height="200mm"
   viewBox="0 0 200 200"
   version="1.1"
   id="svg39"
   inkscape:version="1.1 (c68e22c387, 2021-05-23)"
   sodipodi:docname="trash.svg"
   inkscape:export-filename="C:\Users\Osrail\Documents\Embarcadero\Studio\Projects\Max Sick Gains\resources\icons\trash.png"
   inkscape:export-xdpi="6.0959997"
   inkscape:export-ydpi="6.0959997"
   xmlns:inkscape="http://www.inkscape.org/namespaces/inkscape"
   xmlns:sodipodi="http://sodipodi.sourceforge.net/DTD/sodipodi-0.dtd"
   xmlns="http://www.w3.org/2000/svg"
   xmlns:svg="http://www.w3.org/2000/svg">
  <sodipodi:namedview
     id="namedview41"
     pagecolor="#505050"
     bordercolor="#eeeeee"
     borderopacity="1"
     inkscape:pageshadow="0"
     inkscape:pageopacity="0"
     inkscape:pagecheckerboard="0"
     inkscape:document-units="mm"
     showgrid="false"
     showguides="true"
     inkscape:guide-bbox="true"
     inkscape:snap-bbox="true"
     inkscape:bbox-paths="true"
     inkscape:bbox-nodes="true"
     inkscape:snap-bbox-edge-midpoints="true"
     inkscape:snap-bbox-midpoints="true"
     inkscape:object-paths="true"
     inkscape:snap-intersection-paths="true"
     inkscape:snap-smooth-nodes="true"
     inkscape:snap-midpoints="true"
     inkscape:snap-object-midpoints="true"
     inkscape:snap-center="true"
     inkscape:snap-text-baseline="true"
     inkscape:snap-page="true"
     inkscape:zoom="1"
     inkscape:cx="300.5"
     inkscape:cy="355"
     inkscape:window-width="2560"
     inkscape:window-height="1400"
     inkscape:window-x="-12"
     inkscape:window-y="-12"
     inkscape:window-maximized="1"
     inkscape:current-layer="layer2">
    <sodipodi:guide
       position="99.999999,99.999999"
       orientation="-1,0"
       id="guide55"
       inkscape:label=""
       inkscape:locked="false"
       inkscape:color="rgb(0,0,255)" />
    <sodipodi:guide
       position="100.12825,34.449381"
       orientation="0,-1"
       id="guide10676" />
    <sodipodi:guide
       position="99.999999,153.13429"
       orientation="0,-1"
       id="guide10872" />
    <sodipodi:guide
       position="99.999999,145.13203"
       orientation="0,-1"
       id="guide10874" />
    <sodipodi:guide
       position="99.999999,165.59907"
       orientation="0,-1"
       id="guide10889" />
    <sodipodi:guide
       position="73.198441,145.13203"
       orientation="1,0"
       id="guide10891" />
    <sodipodi:guide
       position="99.999999,132.76276"
       orientation="0,-1"
       id="guide11105" />
    <sodipodi:guide
       position="46.023812,138.822"
       orientation="1,0"
       id="guide11123" />
    <sodipodi:guide
       position="100,87.089061"
       orientation="0,-1"
       id="guide12641" />
  </sodipodi:namedview>
  <defs
     id="defs36" />
  <g
     inkscape:groupmode="layer"
     id="layer2"
     inkscape:label="Layer 2"
     style="display:inline"
     sodipodi:insensitive="true">
    <circle
       style="fill:#cd4141;fill-opacity:1;stroke-width:0.264583"
       id="path9553"
       cx="100"
       cy="100"
       r="100" />
  </g>
  <g
     inkscape:groupmode="layer"
     id="layer3"
     inkscape:label="Layer 3"
     style="display:inline;opacity:1">
    <path
       id="rect10592"
       style="fill:#ffffff;fill-opacity:1;stroke-width:0.90381"
       d="M 337.12891 130.01953 C 303.62717 130.01953 276.65625 157.74254 276.65625 192.17969 L 276.65625 207.375 L 251.20117 207.375 L 195.12695 207.375 C 183.39419 207.375 173.94922 217.80025 173.94922 230.75 C 173.94922 243.69975 183.39419 254.125 195.12695 254.125 L 213.40625 254.125 L 213.40625 587.9082 C 213.40625 608.84679 230.26259 625.70312 251.20117 625.70312 L 504.70508 625.70312 C 525.64366 625.70312 542.5 608.84679 542.5 587.9082 L 542.5 254.125 L 560.7793 254.125 C 572.51206 254.125 581.95703 243.69975 581.95703 230.75 C 581.95703 217.80025 572.51206 207.375 560.7793 207.375 L 504.70508 207.375 L 479.25 207.375 L 479.25 192.17969 C 479.25 157.74254 452.27908 130.01953 418.77734 130.01953 L 337.12891 130.01953 z M 338.79688 177.13086 L 417.10938 177.13086 C 425.48477 177.13086 432.22656 183.87261 432.22656 192.24805 L 432.22656 207.375 L 323.67773 207.375 L 323.67773 192.24805 C 323.67773 183.87261 330.42144 177.13086 338.79688 177.13086 z M 338.71875 254.125 L 417.1875 254.125 C 417.16129 254.12513 417.13557 254.12695 417.10938 254.12695 L 338.79688 254.12695 C 338.7707 254.12695 338.74489 254.12513 338.71875 254.125 z M 300.27344 289.25 L 300.63281 289.25 C 309.00824 289.25 315.75 295.61037 315.75 303.51172 L 315.75 549.98828 C 315.75 557.88963 309.00824 564.25 300.63281 564.25 L 300.27344 564.25 C 291.89801 564.25 285.15625 557.88963 285.15625 549.98828 L 285.15625 303.51172 C 285.15625 295.61037 291.89801 289.25 300.27344 289.25 z M 377.77344 289.25 L 378.13281 289.25 C 386.50824 289.25 393.25 295.61037 393.25 303.51172 L 393.25 549.98828 C 393.25 557.88963 386.50824 564.25 378.13281 564.25 L 377.77344 564.25 C 369.39801 564.25 362.65625 557.88963 362.65625 549.98828 L 362.65625 303.51172 C 362.65625 295.61037 369.39801 289.25 377.77344 289.25 z M 455.27344 289.25 L 455.63281 289.25 C 464.00824 289.25 470.75 295.61037 470.75 303.51172 L 470.75 549.98828 C 470.75 557.88963 464.00824 564.25 455.63281 564.25 L 455.27344 564.25 C 446.89801 564.25 440.15625 557.88963 440.15625 549.98828 L 440.15625 303.51172 C 440.15625 295.61037 446.89801 289.25 455.27344 289.25 z "
       transform="scale(0.26458333)" />
    <g
       id="g12748"
       inkscape:transform-center-x="-10.252596"
       transform="matrix(-1,0,0,1,200,0)" />
  </g>
</svg>
